<svg width="51" height="48" viewBox="0 0 51 48" fill="none" xmlns="http://www.w3.org/2000/svg">
<g clip-path="url(#clip0_133_26)">
<rect x="22" y="5" width="28" height="38" rx="3" fill="white" stroke="#6B7280" stroke-width="2"/>
<path d="M36 10H44C44.5523 10 45 10.4477 45 11V11C45 11.5523 44.5523 12 44 12H36V10Z" fill="#6B7280"/>
<rect x="1" y="1" width="34" height="46" rx="3" fill="white" stroke="#6B7280" stroke-width="2"/>
<rect x="6" y="6" width="24" height="2" rx="1" fill="#6B7280"/>
<rect x="6" y="10" width="16" height="2" rx="1" fill="#6B7280"/>
<rect x="6" y="16" width="24" height="2" rx="1" fill="#9CA3AF"/>
<path d="M36 16H44C44.5523 16 45 16.4477 45 17V17C45 17.5523 44.5523 18 44 18H36V16Z" fill="#9CA3AF"/>
<path d="M36 20H44C44.5523 20 45 20.4477 45 21V21C45 21.5523 44.5523 22 44 22H36V20Z" fill="#9CA3AF"/>
<path d="M36 24H44C44.5523 24 45 24.4477 45 25V25C45 25.5523 44.5523 26 44 26H36V24Z" fill="#9CA3AF"/>
<rect x="6" y="20" width="24" height="2" rx="1" fill="#9CA3AF"/>
<rect x="6" y="32" width="24" height="2" rx="1" fill="#9CA3AF"/>
<rect x="6" y="36" width="14" height="2" rx="1" fill="#9CA3AF"/>
<rect x="6" y="40" width="14" height="2" rx="1" fill="#9CA3AF"/>
<rect x="18" y="24" width="12" height="2" rx="1" fill="#9CA3AF"/>
<rect x="18" y="28" width="12" height="2" rx="1" fill="#9CA3AF"/>
<rect x="6" y="24" width="10" height="6" rx="1" fill="#9CA3AF"/>
<rect x="22" y="36" width="8" height="6" rx="1" fill="#9CA3AF"/>
<path d="M36 28H44C44.5523 28 45 28.4477 45 29V37C45 37.5523 44.5523 38 44 38H36V28Z" fill="#9CA3AF"/>
</g>
<defs>
<clipPath id="clip0_133_26">
<rect width="51" height="48" fill="white"/>
</clipPath>
</defs>
</svg>
